HIERARCHY
ROOT Hips
{
	OFFSET 0.000000 88.474243 0.000000
	CHANNELS 6 Xposition Yposition Zposition Zrotation Yrotation Xrotation 
	JOINT Hips_Spine
	{
		OFFSET 0.000000 0.000000 0.000000
		CHANNELS 3 Zrotation Yrotation Xrotation
		JOINT Spine
		{
			OFFSET 0.005100 8.711998 -0.691000
			CHANNELS 3 Zrotation Yrotation Xrotation
			JOINT Spine1
			{
				OFFSET -0.009200 8.660301 -1.275000
				CHANNELS 3 Zrotation Yrotation Xrotation
				JOINT Spine2
				{
					OFFSET 0.006300 9.852501 -1.857000
					CHANNELS 3 Zrotation Yrotation Xrotation
					JOINT Spine2_Neck
					{
						OFFSET 0.000000 0.000000 0.000000
						CHANNELS 3 Zrotation Yrotation Xrotation
						JOINT Neck
						{
							OFFSET 0.016300 11.420799 -0.263300
							CHANNELS 3 Zrotation Yrotation Xrotation
							End Site #name: Head
							{
								OFFSET -0.019200 9.262405 2.362500
							}
						}
					}
					JOINT Spine2_LeftShoulder
					{
						OFFSET 0.000000 0.000000 0.000000
						CHANNELS 3 Zrotation Yrotation Xrotation
						JOINT LeftShoulder
						{
							OFFSET 5.616900 6.732201 -0.345700
							CHANNELS 3 Zrotation Yrotation Xrotation
							JOINT LeftArm
							{
								OFFSET 10.664888 -0.183372 -2.440700
								CHANNELS 3 Zrotation Yrotation Xrotation
								JOINT LeftForeArm
								{
									OFFSET 27.459126 0.000000 0.000000
									CHANNELS 3 Zrotation Yrotation Xrotation
									End Site #name: LeftHand
									{
										OFFSET 21.306858 0.000000 0.000000
									}
								}
							}
						}
					}
					JOINT Spine2_RightShoulder
					{
						OFFSET 0.000000 0.000000 0.000000
						CHANNELS 3 Zrotation Yrotation Xrotation
						JOINT RightShoulder
						{
							OFFSET -5.580300 6.737503 -0.344400
							CHANNELS 3 Zrotation Yrotation Xrotation
							JOINT RightArm
							{
								OFFSET -10.679335 -0.188484 -2.383900
								CHANNELS 3 Zrotation Yrotation Xrotation
								JOINT RightForeArm
								{
									OFFSET -27.503529 0.000000 0.000000
									CHANNELS 3 Zrotation Yrotation Xrotation
									End Site #name: RightHand
									{
										OFFSET -21.306808 0.000000 0.000000
									}
								}
							}
						}
					}
				}
			}
		}
	}
	JOINT Hips_LeftUpLeg
	{
		OFFSET 0.000000 0.000000 0.000000
		CHANNELS 3 Zrotation Yrotation Xrotation
		JOINT LeftUpLeg
		{
			OFFSET 6.857700 -6.739601 0.312100
			CHANNELS 3 Zrotation Yrotation Xrotation
			JOINT LeftLeg
			{
				OFFSET -0.367590 -34.731552 -4.572400
				CHANNELS 3 Zrotation Yrotation Xrotation
				End Site #name: LeftFoot
				{
					OFFSET 0.367590 -34.656704 -6.067400
				}
			}
		}
	}
	JOINT Hips_RightUpLeg
	{
		OFFSET 0.000000 0.000000 0.000000
		CHANNELS 3 Zrotation Yrotation Xrotation
		JOINT RightUpLeg
		{
			OFFSET -6.876100 -6.733299 0.301000
			CHANNELS 3 Zrotation Yrotation Xrotation
			JOINT RightLeg
			{
				OFFSET 0.347353 -34.795158 -4.515900
				CHANNELS 3 Zrotation Yrotation Xrotation
				End Site #name: RightFoot
				{
					OFFSET -0.347353 -34.589367 -6.070300
				}
			}
		}
	}
}
MOTION
Frames: 18
Frame Time: 0.041667
1.544199 -1.111208 -1.799271 -8.173724 52.826629 -2.013456 0.000000 -0.000000 0.000000 5.479298 -10.616814 4.339819 0.766245 -1.523672 4.913550 0.000000 0.000000 0.000000 1.666057 -1.371250 5.705634 1.813879 -16.972076 1.483725 0.585630 -1.272125 3.066686 -5.350373 -0.346414 -1.364517 -77.204918 -15.914472 2.495302 1.234641 -0.954177 4.122637 1.005680 -2.493580 4.599785 25.040488 18.648820 5.244364 57.348523 6.987291 -15.660272 -178.482187 67.667659 -173.985440 0.000000 0.000000 -0.000000 1.717273 15.760154 -14.475612 -2.122165 -25.416490 -4.208690 0.000000 0.000000 0.000000 1.500578 -25.937009 -12.438007 -9.204116 -7.569906 16.722303 
1.535797 -1.129644 -1.838198 -8.037116 52.466963 -1.919166 0.000000 -0.000000 0.000000 5.484314 -10.694029 4.383672 0.752306 -1.508613 4.890572 0.000000 0.000000 0.000000 1.663757 -1.365910 5.678622 1.780051 -16.877346 1.429660 0.583869 -1.260004 3.059836 -5.362657 -0.410802 -1.363355 -77.217471 -16.057807 2.451878 1.161260 -0.848718 4.033448 1.007387 -2.471882 4.592879 25.201646 18.904362 5.320769 57.108365 7.257005 -15.540997 -178.248879 68.812444 -173.745174 0.000000 0.000000 -0.000000 1.732689 15.725726 -14.463217 -2.120673 -25.590567 -4.284821 0.000000 -0.000000 0.000000 1.629546 -25.893339 -12.463917 -9.252037 -7.479220 16.738969 
1.530098 -1.146574 -1.874121 -7.919855 52.086040 -1.843093 0.000000 -0.000000 0.000000 5.469777 -10.737925 4.454855 0.726735 -1.491207 4.863451 0.000000 0.000000 0.000000 1.650083 -1.357884 5.649879 1.730840 -16.738112 1.351772 0.573886 -1.246748 3.054091 -5.382321 -0.479713 -1.354928 -77.206692 -16.206511 2.400923 1.079593 -0.728396 3.940321 1.000710 -2.447882 4.583676 25.354496 19.163372 5.392841 56.863126 7.592054 -15.291248 -177.980727 69.988906 -173.476515 0.000000 0.000000 -0.000000 1.748861 15.678698 -14.463731 -2.126700 -25.737314 -4.335351 0.000000 -0.000000 0.000000 1.759850 -25.876733 -12.498314 -9.306605 -7.394945 16.760015 
1.527768 -1.162271 -1.907884 -7.819547 51.694001 -1.779862 0.000000 -0.000000 0.000000 5.435438 -10.765443 4.535798 0.688544 -1.471649 4.833612 0.000000 0.000000 0.000000 1.622111 -1.346945 5.619602 1.661510 -16.540434 1.243298 0.556737 -1.232991 3.046034 -5.406853 -0.554708 -1.342081 -77.183616 -16.355944 2.298334 0.986164 -0.600614 3.825045 0.985733 -2.420811 4.571439 25.465121 19.423065 5.452385 56.584630 8.017031 -14.984928 -177.718203 71.093176 -173.223955 0.000000 0.000000 -0.000000 1.770730 15.622826 -14.472636 -2.139138 -25.854917 -4.356485 0.000000 -0.000000 0.000000 1.884795 -25.843941 -12.537645 -9.366893 -7.341868 16.783857 
1.529732 -1.176888 -1.939868 -7.743081 51.361825 -1.737335 0.000000 -0.000000 0.000000 5.389586 -10.767601 4.642303 0.639328 -1.450247 4.799827 0.000000 0.000000 0.000000 1.582309 -1.333613 5.590123 1.570637 -16.273946 1.102854 0.532062 -1.215685 3.038252 -5.438406 -0.654642 -1.310361 -77.155276 -16.505579 2.122316 0.855337 -0.440417 3.677147 0.961621 -2.391254 4.556557 25.542619 19.682398 5.503377 56.293629 8.497294 -14.628838 -177.453071 72.024203 -172.967920 0.000000 0.000000 -0.000000 1.793669 15.562878 -14.504804 -2.165718 -25.918003 -4.325493 0.000000 -0.000000 0.000000 1.993907 -25.800592 -12.576909 -9.435015 -7.333346 16.798112 
1.536674 -1.190280 -1.970223 -7.695775 51.163111 -1.719550 0.000000 -0.000000 0.000000 5.315523 -10.750796 4.776672 0.577449 -1.426786 4.766991 0.000000 0.000000 0.000000 1.529432 -1.316818 5.560410 1.456085 -15.949478 0.947811 0.499717 -1.195902 3.027636 -5.471286 -0.764527 -1.276903 -77.134651 -16.637278 1.890696 0.698427 -0.257435 3.497423 0.929379 -2.359560 4.538091 25.596587 19.946559 5.548727 55.998079 9.025625 -14.225189 -177.221239 72.717565 -172.739617 0.000000 0.000000 -0.000000 1.818026 15.503508 -14.551190 -2.208309 -25.946025 -4.250880 0.000000 -0.000000 0.000000 2.084436 -25.749102 -12.611120 -9.499451 -7.351033 16.812605 
1.549503 -1.202394 -1.999085 -7.673493 51.083922 -1.728455 0.000000 -0.000000 0.000000 5.227413 -10.693888 4.933492 0.501091 -1.401077 4.733659 0.000000 0.000000 0.000000 1.462751 -1.296124 5.530305 1.332599 -15.561421 0.783103 0.457850 -1.173826 3.016066 -5.508660 -0.889643 -1.234260 -77.114686 -16.774304 1.583662 0.497413 -0.029800 3.270968 0.887543 -2.323981 4.517744 25.628204 20.207073 5.584229 55.699566 9.595190 -13.808755 -177.041262 73.136426 -172.554594 0.000000 0.000000 -0.000000 1.836981 15.440831 -14.612656 -2.257764 -25.927267 -4.132554 0.000000 -0.000000 0.000000 2.149381 -25.683229 -12.639509 -9.558252 -7.391431 16.824882 
1.569250 -1.213181 -2.026605 -7.667732 51.085979 -1.761897 0.000000 -0.000000 0.000000 5.104018 -10.604115 5.120084 0.409025 -1.371698 4.701575 0.000000 0.000000 0.000000 1.381011 -1.272170 5.502124 1.198404 -15.099004 0.588354 0.406319 -1.150566 3.009639 -5.546338 -1.037032 -1.179225 -77.114734 -16.875273 1.211728 0.240467 0.254292 2.976095 0.834509 -2.285768 4.499063 25.619224 20.468706 5.590474 55.400525 10.211438 -13.428960 -176.970245 73.172083 -172.474366 0.000000 0.000000 -0.000000 1.851157 15.380160 -14.685815 -2.312337 -25.850301 -3.968708 0.000000 -0.000000 0.000000 2.179477 -25.572377 -12.649647 -9.603249 -7.464887 16.818023 
1.597148 -1.222466 -2.052636 -7.673076 51.180123 -1.818953 0.000000 -0.000000 0.000000 4.952424 -10.473341 5.325988 0.303582 -1.341821 4.673507 0.000000 0.000000 0.000000 1.284778 -1.246726 5.477798 1.053938 -14.570079 0.361505 0.345785 -1.127279 3.004936 -5.583633 -1.206100 -1.112691 -77.112629 -16.964945 0.781687 -0.076390 0.628093 2.618556 0.765207 -2.242745 4.482480 25.567143 20.722075 5.560111 55.095088 10.873041 -13.162100 -177.052166 72.705644 -172.544560 0.000000 -0.000000 -0.000000 1.858551 15.333149 -14.772815 -2.374864 -25.723720 -3.753863 0.000000 -0.000000 0.000000 2.174928 -25.413729 -12.644800 -9.623357 -7.580034 16.797919 
1.633546 -1.230138 -2.077021 -7.695122 51.444035 -1.908071 0.000000 -0.000000 0.000000 4.776644 -10.311651 5.516077 0.186563 -1.314063 4.647698 0.000000 0.000000 0.000000 1.176250 -1.220268 5.455100 0.885567 -13.973922 0.123437 0.276286 -1.104488 3.000623 -5.617629 -1.411259 -1.033019 -77.131669 -17.031970 0.266671 -0.308960 0.972375 2.312957 0.673561 -2.194943 4.464197 25.465428 20.966939 5.492199 54.771389 11.600122 -13.062018 -177.303444 71.589968 -172.781126 0.000000 -0.000000 -0.000000 1.849419 15.301097 -14.888252 -2.447953 -25.539941 -3.469049 0.000000 -0.000000 0.000000 2.135053 -25.190188 -12.634866 -9.637053 -7.758694 16.775186 
1.678476 -1.235348 -2.100128 -7.718515 51.840413 -2.016391 0.000000 -0.000000 0.000000 4.573443 -10.135431 5.714601 0.060430 -1.290546 4.622936 0.000000 0.000000 0.000000 1.062744 -1.196146 5.438360 0.716153 -13.284629 -0.095465 0.201714 -1.083884 2.995694 -5.649370 -1.640659 -0.944838 -77.155509 -17.080388 -0.305643 -0.482049 1.300514 2.028549 0.573550 -2.145799 4.450049 25.313674 21.195456 5.392976 54.481778 12.373033 -13.128792 -177.674787 69.767169 -173.125619 0.000000 -0.000000 -0.000000 1.818382 15.263833 -15.050973 -2.537451 -25.298571 -3.097764 0.000000 -0.000000 0.000000 2.058976 -24.885160 -12.619840 -9.641434 -8.012169 16.732810 
1.732449 -1.238163 -2.121749 -7.727999 52.334441 -2.111467 0.000000 -0.000000 0.000000 4.357298 -9.945380 5.924806 -0.070802 -1.271492 4.605915 0.000000 0.000000 0.000000 0.943338 -1.174692 5.429985 0.524033 -12.540763 -0.300882 0.125451 -1.066820 2.994772 -5.674034 -1.895061 -0.850008 -77.209224 -17.106680 -0.928122 -0.566604 1.792657 1.868232 0.472211 -2.097311 4.437684 25.120424 21.418598 5.265326 54.200829 13.155359 -13.401730 -178.105776 67.358631 -173.528751 0.000000 -0.000000 -0.000000 1.758143 15.219472 -15.270701 -2.641497 -25.010612 -2.653572 0.000000 -0.000000 0.000000 1.944262 -24.485845 -12.609313 -9.609683 -8.339826 16.677509 
1.795853 -1.239011 -2.141420 -7.709619 52.939798 -2.159807 0.000000 -0.000000 0.000000 4.140267 -9.748918 6.137970 -0.200777 -1.257701 4.600315 0.000000 0.000000 0.000000 0.821801 -1.152987 5.430391 0.332050 -11.797567 -0.472753 0.049405 -1.053060 2.991365 -5.706984 -2.132855 -0.762844 -77.208084 -16.950823 -1.797269 -0.629282 2.364199 1.732353 0.372474 -2.054765 4.428951 24.888596 21.638369 5.118418 53.907517 14.003214 -13.960792 -178.536286 64.475137 -173.933984 0.000000 -0.000000 -0.000000 1.666249 15.155858 -15.541777 -2.750096 -24.708411 -2.194701 0.000000 -0.000000 0.000000 1.791602 -23.947750 -12.597230 -9.549115 -8.756574 16.603349 
1.868807 -1.238312 -2.159374 -7.669646 53.674093 -2.162900 0.000000 -0.000000 0.000000 3.835982 -9.402269 6.411542 -0.321540 -1.250112 4.606524 0.000000 0.000000 0.000000 0.701326 -1.131092 5.435071 0.134598 -11.070886 -0.623920 -0.022600 -1.039549 2.993232 -5.750473 -2.332262 -0.689975 -77.229191 -16.745165 -2.777506 -0.688168 3.006852 1.593760 0.277538 -2.016433 4.418878 24.606450 21.843076 4.962206 53.552712 14.780661 -14.711691 -178.930781 61.269348 -174.298527 0.000000 -0.000000 -0.000000 1.544758 15.075698 -15.849301 -2.853338 -24.406797 -1.760660 0.000000 -0.000000 0.000000 1.612656 -23.229224 -12.589752 -9.460206 -9.261357 16.513581 
1.951363 -1.237003 -2.176066 -7.602515 54.470345 -2.120356 0.000000 -0.000000 0.000000 3.520140 -9.064032 6.685923 -0.436192 -1.251161 4.603614 0.000000 0.000000 0.000000 0.588644 -1.112741 5.443991 -0.009929 -10.384793 -0.768241 -0.091174 -1.029618 2.997464 -5.803396 -2.517375 -0.633279 -77.292261 -16.537728 -3.683080 -0.750993 3.725213 1.445364 0.192476 -1.984887 4.416166 24.321486 21.984913 4.786065 53.213876 15.612914 -15.543611 -179.258531 57.852685 -174.595785 0.000000 -0.000000 -0.000000 1.405738 14.992645 -16.151778 -2.942640 -24.151751 -1.401634 0.000000 -0.000000 0.000000 1.419990 -22.333772 -12.579264 -9.267112 -9.786159 16.398736 
2.043298 -1.235982 -2.192020 -7.537072 55.284751 -2.070671 0.000000 -0.000000 0.000000 3.197499 -8.787904 6.958658 -0.546462 -1.259412 4.591949 0.000000 0.000000 0.000000 0.478025 -1.096882 5.453428 -0.104246 -9.737345 -0.911396 -0.157527 -1.024958 2.997946 -5.848882 -2.704260 -0.585591 -77.392242 -16.333191 -4.511956 -0.797242 4.510592 1.218929 0.057063 -1.962884 4.406753 23.993555 22.070009 4.559879 52.948849 16.427923 -16.219859 -179.496650 54.645401 -174.809144 0.000000 -0.000000 -0.000000 1.258286 14.899329 -16.428300 -3.029987 -23.916088 -1.114616 0.000000 -0.000000 0.000000 1.209210 -21.330301 -12.589727 -8.993095 -10.250154 16.273403 
2.143917 -1.236126 -2.208702 -7.467437 56.173603 -2.012663 0.000000 -0.000000 0.000000 2.861098 -8.571748 7.230214 -0.651894 -1.273865 4.565870 0.000000 0.000000 0.000000 0.369278 -1.082276 5.452770 -0.168768 -9.154737 -1.029249 -0.221817 -1.025449 2.988392 -5.886908 -2.863001 -0.555907 -77.509561 -16.163145 -5.348151 -0.841002 5.264614 0.986652 -0.077399 -1.947628 4.388175 23.660277 22.100316 4.318420 52.839877 17.095892 -16.863961 -179.641425 52.138055 -174.908175 0.000000 -0.000000 -0.000000 1.117693 14.821667 -16.661010 -3.110541 -23.730566 -0.923472 0.000000 -0.000000 -0.000000 0.975656 -20.234665 -12.600986 -8.547761 -10.459540 16.114685 
2.252186 -1.237496 -2.225506 -7.373822 57.122448 -1.924968 0.000000 -0.000000 0.000000 2.534560 -8.369945 7.463224 -0.764275 -1.287545 4.513999 0.000000 0.000000 0.000000 0.256826 -1.063249 5.434723 -0.237417 -8.632250 -1.132563 -0.282578 -1.025759 2.957154 -5.913476 -2.995665 -0.534763 -77.619260 -16.002452 -6.111720 -0.907945 5.981677 0.884186 -0.208160 -1.930368 4.352585 23.312555 22.123994 4.083548 52.763342 17.508805 -17.532249 -179.736749 50.250853 -174.976912 0.000000 -0.000000 -0.000000 0.983764 14.756392 -16.826068 -3.164847 -23.617725 -0.860497 0.000000 -0.000000 -0.000000 0.732713 -19.070947 -12.602679 -7.984181 -10.525529 15.916494 
